<?xml version="1.0" encoding="UTF-8" standalone="no"?>
<svg
   width="175.20601mm"
   height="45mm"
   viewBox="0 0 175.20601 45.000002"
   version="1.1"
   id="svg1233"
   inkscape:version="1.1 (c68e22c387, 2021-05-23)"
   sodipodi:docname="ml-pasos.svg"
   xmlns:inkscape="http://www.inkscape.org/namespaces/inkscape"
   xmlns:sodipodi="http://sodipodi.sourceforge.net/DTD/sodipodi-0.dtd"
   xmlns="http://www.w3.org/2000/svg"
   xmlns:svg="http://www.w3.org/2000/svg"
   xmlns:rdf="http://www.w3.org/1999/02/22-rdf-syntax-ns#"
   xmlns:cc="http://creativecommons.org/ns#"
   xmlns:dc="http://purl.org/dc/elements/1.1/">
  <defs
     id="defs1227">
    <clipPath
       clipPathUnits="userSpaceOnUse"
       id="clipPath468">
      <path
         d="M 0,1206.529 H 744.113 V 0 H 0 Z"
         id="path466" />
    </clipPath>
    <clipPath
       clipPathUnits="userSpaceOnUse"
       id="clipPath476">
      <path
         d="m 455.703,219.316 h 25.588 v -58.997 h -25.588 z"
         id="path474" />
    </clipPath>
    <clipPath
       clipPathUnits="userSpaceOnUse"
       id="clipPath492">
      <path
         d="m 567.844,214.821 h 24.447 v -57.488 h -24.447 z"
         id="path490" />
    </clipPath>
    <clipPath
       clipPathUnits="userSpaceOnUse"
       id="clipPath508">
      <path
         d="m 678.156,216.296 h 25.588 v -58.997 h -25.588 z"
         id="path506" />
    </clipPath>
    <clipPath
       clipPathUnits="userSpaceOnUse"
       id="clipPath524">
      <path
         d="m 344.33,219.096 h 25.588 V 160.1 H 344.33 Z"
         id="path522" />
    </clipPath>
    <clipPath
       clipPathUnits="userSpaceOnUse"
       id="clipPath540">
      <path
         d="m 233.401,219.096 h 26.551 V 160.1 h -26.551 z"
         id="path538" />
    </clipPath>
    <clipPath
       clipPathUnits="userSpaceOnUse"
       id="clipPath556">
      <path
         d="m 125.062,221.035 h 25.416 V 161.97 h -25.416 z"
         id="path554" />
    </clipPath>
    <clipPath
       clipPathUnits="userSpaceOnUse"
       id="clipPath948">
      <path
         d="M 0,1206.529 H 744.113 V 0 H 0 Z"
         id="path946" />
    </clipPath>
    <clipPath
       clipPathUnits="userSpaceOnUse"
       id="clipPath468-4">
      <path
         d="M 0,1206.529 H 744.113 V 0 H 0 Z"
         id="path466-7" />
    </clipPath>
    <clipPath
       clipPathUnits="userSpaceOnUse"
       id="clipPath476-0">
      <path
         d="m 455.703,219.316 h 25.588 v -58.997 h -25.588 z"
         id="path474-8" />
    </clipPath>
    <clipPath
       clipPathUnits="userSpaceOnUse"
       id="clipPath492-9">
      <path
         d="m 567.844,214.821 h 24.447 v -57.488 h -24.447 z"
         id="path490-0" />
    </clipPath>
    <clipPath
       clipPathUnits="userSpaceOnUse"
       id="clipPath508-8">
      <path
         d="m 678.156,216.296 h 25.588 v -58.997 h -25.588 z"
         id="path506-2" />
    </clipPath>
    <clipPath
       clipPathUnits="userSpaceOnUse"
       id="clipPath524-3">
      <path
         d="m 344.33,219.096 h 25.588 V 160.1 H 344.33 Z"
         id="path522-9" />
    </clipPath>
    <clipPath
       clipPathUnits="userSpaceOnUse"
       id="clipPath540-5">
      <path
         d="m 233.401,219.096 h 26.551 V 160.1 h -26.551 z"
         id="path538-8" />
    </clipPath>
    <clipPath
       clipPathUnits="userSpaceOnUse"
       id="clipPath556-6">
      <path
         d="m 125.062,221.035 h 25.416 V 161.97 h -25.416 z"
         id="path554-7" />
    </clipPath>
    <clipPath
       clipPathUnits="userSpaceOnUse"
       id="clipPath948-5">
      <path
         d="M 0,1206.529 H 744.113 V 0 H 0 Z"
         id="path946-2" />
    </clipPath>
  </defs>
  <sodipodi:namedview
     id="base"
     pagecolor="#ffffff"
     bordercolor="#666666"
     borderopacity="1.0"
     inkscape:pageopacity="0.0"
     inkscape:pageshadow="2"
     inkscape:zoom="2.8"
     inkscape:cx="274.82143"
     inkscape:cy="74.107143"
     inkscape:document-units="mm"
     inkscape:current-layer="layer1"
     inkscape:document-rotation="0"
     showgrid="false"
     fit-margin-top="0"
     fit-margin-left="0"
     fit-margin-right="0"
     fit-margin-bottom="0"
     inkscape:window-width="1920"
     inkscape:window-height="1137"
     inkscape:window-x="-8"
     inkscape:window-y="-8"
     inkscape:window-maximized="1"
     inkscape:pagecheckerboard="1" />
  <metadata
     id="metadata1230">
    <rdf:RDF>
      <cc:Work
         rdf:about="">
        <dc:format>image/svg+xml</dc:format>
        <dc:type
           rdf:resource="http://purl.org/dc/dcmitype/StillImage" />
      </cc:Work>
    </rdf:RDF>
  </metadata>
  <g
     inkscape:label="Capa 1"
     inkscape:groupmode="layer"
     id="layer1"
     transform="translate(-6.755392,-5.2831581)">
    <g
       id="g37845"
       transform="translate(98.826535)"
       style="fill:#9c1661;fill-opacity:1">
      <g
         id="g640"
         transform="matrix(0.22119414,0,0,-0.21228574,57.042825,31.15141)"
         style="fill:#9c1661;fill-opacity:1">
        <path
           d="m 0,0 c -5.779,0 -10.479,-4.701 -10.479,-10.479 0,-5.778 4.7,-10.479 10.479,-10.479 5.778,0 10.479,4.701 10.479,10.479 C 10.479,-4.701 5.778,0 0,0 m 0,-23.035 c -6.924,0 -12.556,5.633 -12.556,12.556 0,6.923 5.632,12.556 12.556,12.556 6.923,0 12.556,-5.633 12.556,-12.556 0,-6.923 -5.633,-12.556 -12.556,-12.556"
           style="fill:#9c1661;fill-opacity:1;fill-rule:nonzero;stroke:none"
           id="path642" />
      </g>
      <g
         id="g644"
         transform="matrix(0.22119414,0,0,-0.21228574,58.505559,34.139609)"
         style="fill:#9c1661;fill-opacity:1">
        <path
           d="m 0,0 c -0.099,0 -0.201,0.021 -0.297,0.067 -0.345,0.164 -0.492,0.577 -0.328,0.923 1.63,3.427 0.17,7.54 -3.256,9.17 -1.351,0.643 -2.837,0.828 -4.298,0.535 -0.374,-0.075 -0.741,0.167 -0.815,0.543 -0.075,0.375 0.168,0.74 0.543,0.815 1.756,0.351 3.543,0.129 5.165,-0.643 C 0.829,9.452 2.584,4.511 0.626,0.395 0.507,0.146 0.259,0 0,0"
           style="fill:#9c1661;fill-opacity:1;fill-rule:nonzero;stroke:none"
           id="path646" />
      </g>
      <g
         id="g648"
         transform="matrix(0.22119414,0,0,-0.21228574,60.618229,38.411922)"
         style="fill:#9c1661;fill-opacity:1">
        <path
           d="m 0,0 c -0.318,0 -0.632,0.145 -0.836,0.421 l -9.538,12.897 c -0.341,0.461 -0.243,1.112 0.218,1.453 0.459,0.341 1.111,0.244 1.452,-0.217 L 0.834,1.656 C 1.175,1.195 1.078,0.544 0.617,0.204 0.431,0.066 0.214,0 0,0"
           style="fill:#9c1661;fill-opacity:1;fill-rule:nonzero;stroke:none"
           id="path650" />
      </g>
    </g>
    <g
       id="g37890"
       transform="translate(-24.524097)"
       style="fill:#ba9c1b;fill-opacity:1">
      <g
         id="g566"
         transform="matrix(0.22119414,0,0,-0.21228574,156.73799,33.938744)"
         style="fill:#ba9c1b;fill-opacity:1">
        <path
           d="m 0,0 c -0.429,-0.429 -0.999,-0.665 -1.606,-0.665 -0.607,0 -1.177,0.236 -1.605,0.665 -0.429,0.429 -0.665,0.999 -0.665,1.605 0,0.607 0.236,1.177 0.665,1.606 0.428,0.428 0.998,0.664 1.605,0.664 0.607,0 1.177,-0.236 1.605,-0.664 C 0.884,2.325 0.884,0.885 0,0 m -1.606,5.615 c -1.07,0 -2.076,-0.418 -2.835,-1.175 -0.757,-0.758 -1.175,-1.765 -1.175,-2.835 0,-1.07 0.418,-2.076 1.175,-2.834 1.569,-1.558 4.111,-1.558 5.669,0 0.758,0.758 1.176,1.764 1.176,2.834 0,1.07 -0.418,2.077 -1.176,2.835 -0.757,0.757 -1.764,1.175 -2.834,1.175"
           style="fill:#ba9c1b;fill-opacity:1;fill-rule:nonzero;stroke:none"
           id="path568" />
      </g>
      <g
         id="g570"
         transform="matrix(0.22119414,0,0,-0.21228574,157.63867,34.603389)"
         style="fill:#ba9c1b;fill-opacity:1">
        <path
           d="m 0,0 0.005,-10.099 h -11.356 v 3.079 l 1.652,-0.004 c 0.589,0.042 0.933,0.461 0.942,0.941 0,0.518 -0.419,0.937 -0.942,0.942 h -1.657 v 1.61 h 3.851 c 0.532,0.014 0.947,0.419 0.942,0.942 0,0.517 -0.419,0.936 -0.942,0.941 h -3.851 V 0 C -11.36,6.907 -9.393,13.573 -5.678,19.359 -1.954,13.573 0.005,6.907 0,0 m 6.398,-10.099 h -4.51 v 4.52 c 2.297,-0.395 4.115,-2.222 4.51,-4.52 m -24.152,0 c 0.433,2.364 2.25,4.2 4.52,4.52 v -4.52 z M -6.445,21.586 C -10.89,15.221 -13.234,7.754 -13.234,-0.005 v -3.681 c -3.564,-0.419 -6.446,-3.461 -6.479,-7.354 0,-0.518 0.419,-0.937 0.942,-0.942 L 7.42,-11.987 c 0.532,0.033 0.932,0.415 0.941,0.942 0,3.776 -2.829,6.888 -6.473,7.349 v 3.691 c 0,7.759 -2.349,15.221 -6.775,21.568 -0.334,0.466 -1.097,0.617 -1.558,0.023"
           style="fill:#ba9c1b;fill-opacity:1;fill-rule:nonzero;stroke:none"
           id="path572" />
      </g>
      <g
         id="g574"
         transform="matrix(0.22119414,0,0,-0.21228574,156.66497,38.1824)"
         style="fill:#ba9c1b;fill-opacity:1">
        <path
           d="M 0,0 C 0,-0.452 -0.574,-1.977 -1.276,-3.602 -1.977,-1.977 -2.547,-0.447 -2.552,0 -2.528,0.739 -2.024,1.224 -1.281,1.271 -0.574,1.271 0,0.697 0,0 m -4.426,0 c 0,-1.328 1.766,-5.146 2.307,-6.281 0.25,-0.616 1.253,-0.828 1.695,0 0.542,1.135 2.303,4.949 2.307,6.281 0,1.742 -1.412,3.154 -3.154,3.154 C -3.136,3.117 -4.411,1.662 -4.426,0"
           style="fill:#ba9c1b;fill-opacity:1;fill-rule:nonzero;stroke:none"
           id="path576" />
      </g>
    </g>
    <text
       xml:space="preserve"
       style="font-size:3.63932px;line-height:1.25;font-family:sans-serif;letter-spacing:0px;word-spacing:0px;fill:#000080;fill-opacity:1;stroke-width:0.0909827"
       x="105.03292"
       y="17.04468"
       id="text2846-3-9-8"
       transform="scale(1.0207665,0.97965598)"><tspan
         sodipodi:role="line"
         id="tspan2844-8-7-3"
         x="105.03292"
         y="17.04468"
         style="text-align:center;text-anchor:middle;fill:#000080;fill-opacity:1;stroke-width:0.0909827">EVALUAR</tspan><tspan
         sodipodi:role="line"
         x="105.03292"
         y="21.59383"
         style="text-align:center;text-anchor:middle;fill:#000080;fill-opacity:1;stroke-width:0.0909827"
         id="tspan15501">RESULTADOS</tspan></text>
    <text
       xml:space="preserve"
       style="font-size:3.79085px;line-height:1.25;font-family:sans-serif;letter-spacing:0px;word-spacing:0px;fill:#000080;fill-opacity:1;stroke-width:0.0947714"
       x="33.245171"
       y="16.852972"
       id="text2846"
       transform="scale(1.0207665,0.97965598)"><tspan
         sodipodi:role="line"
         id="tspan2844"
         x="33.245171"
         y="16.852972"
         style="text-align:center;text-anchor:middle;fill:#000080;fill-opacity:1;stroke-width:0.0947714">OBTENER</tspan><tspan
         sodipodi:role="line"
         x="33.245171"
         y="21.591534"
         style="text-align:center;text-anchor:middle;fill:#000080;fill-opacity:1;stroke-width:0.0947714"
         id="tspan5949">DATOS</tspan></text>
    <g
       id="g470"
       transform="matrix(0.22119414,0,0,-0.21228574,12.342276,75.146251)">
      <g
         id="g472" />
      <g
         id="g484">
        <g
           clip-path="url(#clipPath476-0)"
           opacity="0.199997"
           id="g482">
          <g
             transform="translate(475.029,218.856)"
             id="g480">
            <path
               d="m 0,0 -14.689,0.46 c 7.317,-9.602 10.299,-21.47 8.195,-32.889 -2.141,-11.61 -6.245,-19.738 -12.832,-25.317 l 15.355,-0.791 c 5.72,7.316 7.95,16.181 9.376,23.916 C 7.538,-23.048 5.669,-11.089 0,0"
               style="fill:#fbd123;fill-opacity:1;fill-rule:nonzero;stroke:none"
               id="path478" />
          </g>
        </g>
      </g>
    </g>
    <g
       id="g486"
       transform="matrix(0.22119414,0,0,-0.21228574,12.342276,75.146251)">
      <g
         id="g488" />
      <g
         id="g500">
        <g
           clip-path="url(#clipPath492-9)"
           opacity="0.199997"
           id="g498">
          <g
             transform="translate(587.3275,213.2926)"
             id="g496">
            <path
               d="m 0,0 -15.147,1.529 c 6.825,-9.066 9.184,-19.622 7.011,-31.413 -1.767,-9.586 -3.883,-18.095 -11.347,-24.416 l 13.896,-1.659 C 0.115,-48.648 2.34,-39.8 3.763,-32.077 6.135,-19.21 5.047,-9.872 0,0"
               style="fill:#ba9c1b;fill-opacity:1;fill-rule:nonzero;stroke:none"
               id="path494" />
          </g>
        </g>
      </g>
    </g>
    <g
       id="g502"
       transform="matrix(0.22119414,0,0,-0.21228574,12.342276,75.146251)">
      <g
         id="g504" />
      <g
         id="g516">
        <g
           clip-path="url(#clipPath508-8)"
           opacity="0.199997"
           id="g514">
          <g
             transform="translate(697.4819,215.8371)"
             id="g512">
            <path
               d="m 0,0 -14.689,0.459 c 7.318,-9.601 10.299,-21.468 8.195,-32.888 -2.141,-11.61 -6.245,-19.739 -12.832,-25.317 l 15.355,-0.792 C 1.75,-51.22 3.98,-42.356 5.405,-34.621 7.538,-23.048 5.669,-11.089 0,0"
               style="fill:#9c1661;fill-opacity:1;fill-rule:nonzero;stroke:none"
               id="path510" />
          </g>
        </g>
      </g>
    </g>
    <g
       id="g518"
       transform="matrix(0.22119414,0,0,-0.21228574,12.342276,75.146251)">
      <g
         id="g520" />
      <g
         id="g532">
        <g
           clip-path="url(#clipPath524-3)"
           opacity="0.199997"
           id="g530">
          <g
             transform="translate(363.6568,218.6363)"
             id="g528">
            <path
               d="m 0,0 -14.689,0.46 c 7.317,-9.603 10.298,-21.47 8.194,-32.889 -2.139,-11.61 -6.244,-19.738 -12.831,-25.317 l 15.354,-0.791 C 1.749,-51.221 3.98,-42.356 5.405,-34.62 7.538,-23.048 5.669,-11.091 0,0"
               style="fill:#f25841;fill-opacity:1;fill-rule:nonzero;stroke:none"
               id="path526" />
          </g>
        </g>
      </g>
    </g>
    <g
       id="g534"
       transform="matrix(0.22119414,0,0,-0.21228574,12.342276,75.146251)">
      <g
         id="g536" />
      <g
         id="g548">
        <g
           clip-path="url(#clipPath540-5)"
           opacity="0.199997"
           id="g546">
          <g
             transform="translate(253.6905,218.6363)"
             id="g544">
            <path
               d="m 0,0 -14.688,0.46 c 7.316,-9.603 10.298,-21.47 8.194,-32.889 -1.97,-10.687 -6.718,-19.365 -13.795,-25.27 l 15.614,-0.837 C 0.31,-52.198 3.609,-44.368 5.405,-34.62 7.538,-23.048 5.669,-11.09 0,0"
               style="fill:#3e65a0;fill-opacity:1;fill-rule:nonzero;stroke:none"
               id="path542" />
          </g>
        </g>
      </g>
    </g>
    <g
       id="g550"
       transform="matrix(0.22119414,0,0,-0.21228574,12.342276,75.146251)">
      <g
         id="g552" />
      <g
         id="g564">
        <g
           clip-path="url(#clipPath556-6)"
           opacity="0.199997"
           id="g562">
          <g
             transform="translate(142.6118,221.035)"
             id="g560">
            <path
               d="m 0,0 -14.68,-0.317 c 7.794,-8.901 11.491,-20.626 10.183,-32.518 -1.114,-10.123 -5.719,-19.338 -13.053,-26.23 l 16.029,0.271 c 4.953,7.305 8.08,15.811 9.051,24.635 C 8.855,-22.122 6.252,-10.324 0,0"
               style="fill:#588cd1;fill-opacity:1;fill-rule:nonzero;stroke:none"
               id="path558" />
          </g>
        </g>
      </g>
    </g>
    <g
       id="g1072"
       transform="translate(1.2984429)">
      <text
         xml:space="preserve"
         style="font-size:3.79085px;line-height:1.25;font-family:sans-serif;letter-spacing:0px;word-spacing:0px;fill:#000080;fill-opacity:1;stroke-width:0.0947714"
         x="55.685482"
         y="12.11441"
         id="text2846-3"
         transform="scale(1.0207665,0.97965598)"><tspan
           sodipodi:role="line"
           id="tspan2844-8"
           x="55.685482"
           y="12.11441"
           style="text-align:center;text-anchor:middle;fill:#000080;fill-opacity:1;stroke-width:0.0947714">LIMPIAR Y</tspan><tspan
           sodipodi:role="line"
           x="55.685482"
           y="16.852972"
           style="text-align:center;text-anchor:middle;fill:#000080;fill-opacity:1;stroke-width:0.0947714"
           id="tspan8534">PREPARAR</tspan><tspan
           sodipodi:role="line"
           x="55.685482"
           y="21.591536"
           style="text-align:center;text-anchor:middle;fill:#000080;fill-opacity:1;stroke-width:0.0947714"
           id="tspan13523">DATOS</tspan></text>
      <g
         id="g586"
         transform="matrix(0.22119414,0,0,-0.21228574,57.655054,35.13801)"
         style="fill:none;stroke:#3e65a0;stroke-opacity:1" />
    </g>
    <g
       id="g2630">
      <path
         d="M 0,0 -1.709,1.728 0.026,3.486 C 0.05,3.511 0.065,3.628 -0.001,3.717 L -0.856,4.579 C -0.881,4.604 -0.999,4.616 -1.083,4.552 L -2.788,2.821 -4.524,4.579 C -4.549,4.604 -4.667,4.616 -4.751,4.552 L -5.602,3.686 C -5.626,3.662 -5.641,3.544 -5.575,3.455 l 1.708,-1.727 -1.735,-1.759 c -0.024,-0.024 -0.039,-0.142 0.027,-0.231 l 0.855,-0.861 c 0.024,-0.025 0.139,-0.041 0.227,0.026 l 1.705,1.732 1.736,-1.758 c 0.024,-0.025 0.14,-0.041 0.226,0.026 L 0.026,-0.23 C 0.05,-0.206 0.065,-0.088 0,0"
         style="stroke:#3e65a0;stroke-opacity:1;fill:none;fill-opacity:1;fill-rule:nonzero"
         id="path588"
         transform="matrix(0.22119414,0,0,-0.21228574,57.655055,35.138011)" />
      <g
         id="g2612">
        <g
           id="g2597">
          <g
             id="g578"
             transform="matrix(0.22119414,0,0,-0.21228574,56.799194,32.860481)"
             style="stroke:#3e65a0;stroke-opacity:1;fill:none">
            <path
               d="M 0,0 -1.572,1.428 C -1.57,1.423 -1.605,1.426 -1.617,1.423 L -2.649,0.228 c 0.003,0 0,-0.035 0.003,-0.047 L 0.206,-2.42 4.902,3.47 C 4.896,3.48 4.889,3.489 4.879,3.499 l -1.24,1.024 z"
               style="fill:none;fill-opacity:1;fill-rule:nonzero;stroke:#3e65a0;stroke-opacity:1"
               id="path580" />
          </g>
          <g
             id="g582"
             transform="matrix(0.22119414,0,0,-0.21228574,61.374854,33.1442)"
             style="stroke:#3e65a0;stroke-opacity:1;fill:none">
            <path
               d="m 0,0 h -12.742 c -0.796,0 -1.441,0.484 -1.441,1.079 0,0.595 0.645,1.079 1.441,1.079 H 0.001 C 0.797,2.158 1.442,1.674 1.442,1.079 1.442,0.484 0.797,0 0,0"
               style="fill:none;fill-opacity:1;fill-rule:nonzero;stroke:#3e65a0;stroke-opacity:1"
               id="path584" />
          </g>
          <g
             id="g590"
             transform="matrix(0.22119414,0,0,-0.21228574,61.374854,35.13973)"
             style="stroke:#3e65a0;stroke-opacity:1;fill:none">
            <path
               d="m 0,0 h -12.742 c -0.796,0 -1.441,0.484 -1.441,1.079 0,0.595 0.645,1.079 1.441,1.079 H 0.001 C 0.797,2.158 1.442,1.674 1.442,1.079 1.442,0.484 0.797,0 0,0"
               style="fill:none;fill-opacity:1;fill-rule:nonzero;stroke:#3e65a0;stroke-opacity:1"
               id="path592" />
          </g>
          <g
             id="g594"
             transform="matrix(0.22119414,0,0,-0.21228574,57.650564,37.280397)"
             style="stroke:#3e65a0;stroke-opacity:1;fill:none">
            <path
               d="M 0,0 -1.688,1.749 0.068,3.486 C 0.093,3.51 0.109,3.627 0.044,3.716 L -0.801,4.59 c -0.022,0.025 -0.14,0.04 -0.227,-0.025 l -1.726,-1.71 -1.714,1.78 C -4.491,4.66 -4.608,4.676 -4.695,4.611 L -5.557,3.754 C -5.582,3.731 -5.598,3.613 -5.534,3.524 L -3.846,1.775 -5.602,0.039 c -0.024,-0.024 -0.04,-0.142 0.024,-0.232 l 0.844,-0.872 c 0.023,-0.024 0.14,-0.042 0.229,0.024 l 1.725,1.71 1.714,-1.779 c 0.025,-0.024 0.14,-0.041 0.228,0.024 L 0.024,-0.23 C 0.048,-0.206 0.064,-0.089 0,0"
               style="fill:none;fill-opacity:1;fill-rule:nonzero;stroke:#3e65a0;stroke-opacity:1"
               id="path596" />
          </g>
          <g
             id="g598"
             transform="matrix(0.22119414,0,0,-0.21228574,61.371184,37.148589)"
             style="stroke:#3e65a0;stroke-opacity:1;fill:none">
            <path
               d="m 0,0 -12.741,0.126 c -0.796,0.008 -1.434,0.498 -1.425,1.093 0.009,0.595 0.661,1.072 1.457,1.064 L 0.033,2.158 C 0.829,2.15 1.467,1.66 1.458,1.065 1.449,0.469 0.797,-0.008 0,0"
               style="fill:none;fill-opacity:1;fill-rule:nonzero;stroke:#3e65a0;stroke-opacity:1"
               id="path600" />
          </g>
          <g
             id="g602"
             transform="matrix(0.22119414,0,0,-0.21228574,59.579554,38.341634)"
             style="stroke:#3e65a0;stroke-opacity:1">
            <path
               d="m 0,0 h -16.759 c -1.677,0 -3.036,1.359 -3.036,3.036 v 27.437 c 0,1.677 1.359,3.036 3.036,3.036 H 0 c 1.677,0 3.036,-1.359 3.036,-3.036 V 3.036 C 3.036,1.359 1.677,0 0,0 Z"
               style="fill:none;stroke:#3e65a0;stroke-width:3;stroke-linecap:butt;stroke-linejoin:miter;stroke-miterlimit:10;stroke-dasharray:none;stroke-opacity:1"
               id="path604" />
          </g>
        </g>
      </g>
    </g>
    <g
       id="g1081">
      <text
         xml:space="preserve"
         style="font-size:3.79085px;line-height:1.25;font-family:sans-serif;letter-spacing:0px;word-spacing:0px;fill:#000080;fill-opacity:1;stroke-width:0.0947714"
         x="80.721649"
         y="16.852972"
         id="text2846-3-9"
         transform="scale(1.0207665,0.97965598)"><tspan
           sodipodi:role="line"
           id="tspan2844-8-7"
           x="80.721649"
           y="16.852972"
           style="text-align:center;text-anchor:middle;fill:#000080;fill-opacity:1;stroke-width:0.0947714">ENTRENAR</tspan><tspan
           sodipodi:role="line"
           x="80.721649"
           y="21.591534"
           style="text-align:center;text-anchor:middle;fill:#000080;fill-opacity:1;stroke-width:0.0947714"
           id="tspan15047">MODELO</tspan></text>
      <g
         id="g37866"
         transform="translate(-24.341676)"
         style="fill:#f25841;fill-opacity:1">
        <g
           id="g606"
           transform="matrix(0.22119414,0,0,-0.21228574,107.17336,38.479641)"
           style="fill:#f25841;fill-opacity:1">
          <path
             d="M 0,0 H -2.138 L -4.087,3.395 H 1.949 Z M 4.581,28.702 H 2.609 V 5.25 H -0.157 V 28.702 H -1.98 V 5.25 H -4.747 V 28.702 H -6.422 L -6.727,4.377 c -10e-4,-0.063 -0.002,-0.126 0.029,-0.158 0,0 0.031,-0.032 0,-0.063 -10e-4,-0.062 0.03,-0.094 0.029,-0.157 l 0.031,-0.032 c 0.031,-0.032 0.031,-0.032 0.03,-0.095 l 4.489,-8.104 c 0.154,-0.285 0.466,-0.478 0.78,-0.482 0.251,-0.003 0.473,0.089 0.664,0.275 0.063,0.062 0.127,0.124 0.128,0.187 L 4.144,3.8 c 0.031,0.032 0.031,0.032 0.032,0.094 l 0.032,0.031 c 0.032,0.031 0.033,0.094 0.034,0.157 0,0 0.031,0.031 0,0.063 0.001,0.063 0.033,0.094 0.034,0.157 z"
             style="fill:#f25841;fill-opacity:1;fill-rule:nonzero;stroke:none"
             id="path608" />
        </g>
        <path
           d="m 109.78006,32.19193 h -0.28888 v -1.687884 h 0.28888 z m -0.72087,-0.567865 c -0.054,-0.01528 -0.10993,-0.0259 -0.16921,-0.0259 -0.25747,0 -0.47778,0.15518 -0.56515,0.373198 h -4.22968 l -0.002,-0.218654 0.42757,-0.06963 c 0.55255,-0.08958 0.99139,-0.474034 1.1407,-0.980336 h 2.66318 c 0.0871,0.218018 0.30768,0.373199 0.56515,0.373199 0.0593,0 0.11524,-0.01083 0.16921,-0.02611 z m 0.93676,-1.534401 h -0.72087 c -0.119,0 -0.21589,0.09256 -0.21589,0.206978 v 0.216743 c -0.01,0.08279 -0.0803,0.148176 -0.16921,0.148176 -0.0953,0 -0.17297,-0.07473 -0.17297,-0.16622 0,-0.114422 -0.0969,-0.207191 -0.21589,-0.207191 h -0.1336 v 2.13e-4 h -0.77794 -0.94362 -1.15927 c -0.10662,4.24e-4 -0.19709,0.07536 -0.21279,0.176834 -0.0633,0.414169 -0.39483,0.739603 -0.82506,0.809233 l -0.60872,0.09893 c -0.10441,0.01698 -0.1805,0.10402 -0.17983,0.205705 l 0.005,0.600981 c 6.7e-4,0.113785 0.0971,0.205492 0.21589,0.205492 h 2.33337 v 2.13e-4 h 0.43155 0.94362 0.43177 0.20372 0.27605 c 0.119,0 0.21589,-0.09277 0.21589,-0.207191 0,-0.0915 0.0776,-0.16622 0.17297,-0.16622 0.0889,0 0.15948,0.06538 0.16921,0.148176 v 0.238396 c 0,0.114635 0.0969,0.207191 0.21589,0.207191 h 0.72087 c 0.119,0 0.21589,-0.09256 0.21589,-0.207191 v -2.102265 c 0,-0.114422 -0.0969,-0.206979 -0.21589,-0.206979"
           style="fill:#f25841;fill-opacity:1;fill-rule:nonzero;stroke:none;stroke-width:0.216694"
           id="path610" />
      </g>
    </g>
    <g
       id="g37861"
       transform="translate(25.231605)"
       style="fill:#fbd123;fill-opacity:1">
      <g
         id="g612"
         transform="matrix(0.22119414,0,0,-0.21228574,82.057028,38.883198)"
         style="fill:#fbd123;fill-opacity:1">
        <path
           d="m 0,0 c -2.617,0 -4.745,1.699 -4.745,3.787 0,0.441 0.448,0.8 1.001,0.8 0.553,0 1.002,-0.359 1.002,-0.8 0,-1.206 1.23,-2.188 2.742,-2.188 1.511,0 2.741,0.982 2.741,2.188 0,0.441 0.448,0.8 1.001,0.8 0.553,0 1.002,-0.359 1.002,-0.8 C 4.744,1.699 2.616,0 0,0"
           style="fill:#fbd123;fill-opacity:1;fill-rule:nonzero;stroke:none"
           id="path614" />
      </g>
      <g
         id="g616"
         transform="matrix(0.22119414,0,0,-0.21228574,83.036343,37.67803)"
         style="fill:#fbd123;fill-opacity:1">
        <path
           d="m 0,0 h -8.857 c -0.553,0 -1.001,0.449 -1.001,1.002 0,0.552 0.448,1.002 1.001,1.002 h 8.858 c 0.553,0 1.001,-0.45 1.001,-1.002 C 1.002,0.449 0.554,0 0,0"
           style="fill:#fbd123;fill-opacity:1;fill-rule:nonzero;stroke:none"
           id="path618" />
      </g>
      <g
         id="g620"
         transform="matrix(0.22119414,0,0,-0.21228574,83.23794,36.907156)"
         style="fill:#fbd123;fill-opacity:1">
        <path
           d="m 0,0 h -10.679 c -0.668,0 -1.208,0.449 -1.208,1.002 0,0.552 0.54,1.002 1.208,1.002 h 10.68 c 0.667,0 1.208,-0.45 1.208,-1.002 C 1.209,0.449 0.668,0 0,0"
           style="fill:#fbd123;fill-opacity:1;fill-rule:nonzero;stroke:none"
           id="path622" />
      </g>
      <g
         id="g624"
         transform="matrix(0.22119414,0,0,-0.21228574,82.056962,31.074267)"
         style="fill:#fbd123;fill-opacity:1">
        <path
           d="m 0,0 c -6.071,0 -11.01,-4.939 -11.01,-11.009 0,-6.071 4.939,-11.009 11.01,-11.009 6.071,0 11.009,4.938 11.009,11.009 C 11.009,-4.939 6.071,0 0,0 m 0,-23.844 c -7.078,0 -12.836,5.758 -12.836,12.835 0,7.077 5.758,12.835 12.836,12.835 7.078,0 12.835,-5.758 12.835,-12.835 0,-7.077 -5.757,-12.835 -12.835,-12.835"
           style="fill:#fbd123;fill-opacity:1;fill-rule:nonzero;stroke:none"
           id="path626" />
      </g>
      <g
         id="g628"
         transform="matrix(0.22119414,0,0,-0.21228574,81.465666,33.500288)"
         style="fill:#fbd123;fill-opacity:1">
        <path
           d="M 0,0 1.765,-5.378 C 1.87,-5.698 1.696,-6.042 1.376,-6.146 1.057,-6.251 0.713,-6.077 0.608,-5.758 l -1.765,5.378 c -0.104,0.32 0.07,0.664 0.389,0.769 C -0.449,0.493 -0.105,0.319 0,0"
           style="fill:#fbd123;fill-opacity:1;fill-rule:nonzero;stroke:none"
           id="path630" />
      </g>
      <g
         id="g632"
         transform="matrix(0.22119414,0,0,-0.21228574,82.811699,33.419492)"
         style="fill:#fbd123;fill-opacity:1">
        <path
           d="m 0,0 v 0 c 0.341,-0.112 0.527,-0.48 0.415,-0.821 l -1.753,-5.338 c -0.105,-0.319 -0.449,-0.493 -0.768,-0.388 -0.319,0.105 -0.493,0.449 -0.388,0.768 l 1.779,5.417 C -0.618,-0.064 -0.297,0.098 0,0"
           style="fill:#fbd123;fill-opacity:1;fill-rule:nonzero;stroke:none"
           id="path634" />
      </g>
      <g
         id="g636"
         transform="matrix(0.22119414,0,0,-0.21228574,82.637376,33.929764)"
         style="fill:#fbd123;fill-opacity:1">
        <path
           d="m 0,0 c -1.826,0.791 -3.53,0.791 -5.234,0 l -0.487,1.096 c 2.008,0.912 4.078,0.912 6.208,0 z"
           style="fill:#fbd123;fill-opacity:1;fill-rule:nonzero;stroke:none"
           id="path638" />
      </g>
    </g>
    <g
       id="g2807"
       transform="translate(0.52916667)">
      <g
         id="g652"
         transform="matrix(0.22119414,0,0,-0.21228574,35.839685,36.704467)">
        <path
           d="m 0,0 c -0.006,-0.005 -0.01,-0.011 -0.017,-0.016 l -9.792,-10.663 c -0.181,-0.196 -0.417,-0.305 -0.667,-0.305 -0.249,0 -0.485,0.109 -0.666,0.305 l -9.782,10.648 c -0.01,0.01 -0.018,0.021 -0.027,0.03 -1.167,1.194 -1.809,2.771 -1.809,4.44 0,3.504 2.85,6.353 6.352,6.353 2.111,0 4.078,-1.043 5.263,-2.793 l 0.046,-0.073 c 0.134,-0.21 0.365,-0.339 0.615,-0.341 0.257,-0.007 0.483,0.123 0.62,0.332 1.18,1.801 3.168,2.875 5.318,2.875 3.504,0 6.353,-2.85 6.353,-6.353 C 1.808,2.77 1.166,1.193 0,0 m -4.545,12.261 c -2.303,0 -4.454,-1.002 -5.932,-2.721 -1.478,1.718 -3.635,2.721 -5.93,2.721 -4.313,0 -7.821,-3.509 -7.821,-7.822 0,-2.049 0.785,-3.985 2.213,-5.453 l 9.791,-10.659 c 0.461,-0.502 1.082,-0.779 1.747,-0.779 0.667,0 1.287,0.277 1.749,0.779 l 9.785,10.654 c 1.431,1.468 2.219,3.407 2.219,5.458 0.001,4.313 -3.509,7.822 -7.821,7.822"
           style="fill:#588cd1;fill-opacity:1;fill-rule:nonzero;stroke:none"
           id="path654" />
      </g>
      <g
         id="g656"
         transform="matrix(0.22119414,0,0,-0.21228574,32.210354,34.450119)">
        <path
           d="m 0,0 c -3.407,0 -6.179,-2.772 -6.179,-6.18 0,-1.625 0.625,-3.159 1.759,-4.319 l 0.031,-0.034 9.783,-10.648 c 0.295,-0.321 0.781,-0.321 1.078,0 l 9.815,10.686 c 1.132,1.159 1.755,2.692 1.755,4.315 C 18.042,-2.772 15.27,0 11.862,0 9.771,0 7.837,-1.046 6.688,-2.798 6.515,-3.063 6.232,-3.21 5.92,-3.207 5.612,-3.204 5.328,-3.047 5.163,-2.786 L 5.117,-2.712 C 3.967,-1.016 2.053,0 0,0 m 5.932,-21.776 c -0.297,0 -0.579,0.128 -0.793,0.361 l -9.783,10.648 c -1.221,1.251 -1.881,2.871 -1.881,4.587 0,3.598 2.927,6.526 6.525,6.526 2.168,0 4.189,-1.072 5.407,-2.869 l 0.049,-0.078 c 0.102,-0.161 0.278,-0.259 0.47,-0.26 0.2,0.001 0.364,0.087 0.473,0.253 1.212,1.85 3.255,2.954 5.463,2.954 3.599,0 6.526,-2.928 6.526,-6.526 0,-1.716 -0.659,-3.335 -1.856,-4.56 L 16.521,-10.751 6.726,-21.415 C 6.511,-21.648 6.23,-21.776 5.932,-21.776 M 0.001,1.468 c -4.217,0 -7.648,-3.431 -7.648,-7.648 0,-2.004 0.768,-3.898 2.164,-5.333 l 9.794,-10.662 c 0.428,-0.466 1.004,-0.723 1.62,-0.723 0.617,0 1.193,0.257 1.621,0.723 l 9.786,10.654 c 1.403,1.439 2.173,3.335 2.173,5.34 0,2.04 -0.796,3.96 -2.243,5.407 -1.446,1.446 -3.366,2.242 -5.405,2.242 -2.233,0 -4.348,-0.969 -5.8,-2.66 L 5.931,-1.345 5.8,-1.192 c -1.455,1.69 -3.569,2.66 -5.799,2.66 m 5.93,-24.712 c -0.714,0 -1.38,0.296 -1.875,0.835 l -9.791,10.659 c -1.455,1.496 -2.258,3.475 -2.258,5.57 0,4.408 3.586,7.994 7.994,7.994 2.265,0 4.415,-0.956 5.93,-2.632 1.513,1.676 3.663,2.632 5.932,2.632 2.131,0 4.138,-0.832 5.65,-2.344 1.512,-1.512 2.345,-3.518 2.345,-5.651 0,-2.096 -0.806,-4.077 -2.269,-5.578 l -9.781,-10.65 c -0.495,-0.539 -1.162,-0.835 -1.877,-0.835"
           style="fill:#588cd1;fill-opacity:1;fill-rule:nonzero;stroke:none"
           id="path658" />
      </g>
      <g
         id="g660"
         transform="matrix(0.22119414,0,0,-0.21228574,32.262954,34.783131)">
        <path
           d="m 0,0 c -2.673,0 -4.849,-2.175 -4.849,-4.849 0,-0.405 0.33,-0.734 0.736,-0.734 0.404,0 0.733,0.329 0.733,0.734 0,1.865 1.516,3.38 3.38,3.38 0.405,0 0.735,0.329 0.735,0.735 C 0.735,-0.329 0.405,0 0,0"
           style="fill:#588cd1;fill-opacity:1;fill-rule:nonzero;stroke:none"
           id="path662" />
      </g>
      <g
         id="g664"
         transform="matrix(0.22119414,0,0,-0.21228574,33.5225,30.552701)">
        <path
           d="m 0,0 c -3.816,0 -6.92,-3.104 -6.92,-6.92 0,-3.815 3.104,-6.92 6.92,-6.92 3.816,0 6.92,3.105 6.92,6.92 C 6.92,-3.104 3.816,0 0,0 m 0,-15.57 c -4.77,0 -8.651,3.88 -8.651,8.65 0,4.77 3.881,8.651 8.651,8.651 4.77,0 8.651,-3.881 8.651,-8.651 0,-4.77 -3.881,-8.65 -8.651,-8.65"
           style="fill:#588cd1;fill-opacity:1;fill-rule:nonzero;stroke:none"
           id="path666" />
      </g>
    </g>
    <g
       id="g668"
       transform="matrix(0.22119414,0,0,-0.21228574,45.092701,35.487454)">
      <path
         d="M 0,0 -7.905,-2.334 -18.51,-19.531 c -7.938,-10.386 -19.873,-16.343 -32.744,-16.343 -22.864,0 -41.465,18.882 -41.465,42.09 0,23.207 18.601,42.089 41.465,42.089 16.529,0 31.319,-9.846 37.96,-25.176 l 11.067,4.902 c -8.588,19.7 -27.727,32.375 -49.027,32.375 -29.536,0 -53.565,-24.31 -53.565,-54.19 0,-29.881 24.029,-54.191 53.565,-54.191 18.644,0 36.232,10.085 45.9,26.32 l 0.667,1.172 7.05,12.479 z"
         style="fill:#588cd1;fill-opacity:1;fill-rule:nonzero;stroke:none"
         id="path670" />
    </g>
    <g
       id="g672"
       transform="matrix(0.22119414,0,0,-0.21228574,46.173875,34.167969)"
       style="fill:#3e65a0;fill-opacity:1">
      <path
         d="m 0,0 c 0,-29.88 24.029,-54.19 53.565,-54.19 18.769,0 35.852,9.71 45.696,25.977 l 8.431,14.009 -2.358,7.988 -7.912,-2.335 -8.805,-13.899 C 80.947,-34.756 67.874,-42.09 53.565,-42.09 30.701,-42.09 12.1,-23.208 12.1,0 c 0,23.208 18.601,42.09 41.465,42.09 16.669,0 31.507,-9.963 38.083,-25.473 l 11.075,4.879 C 94.202,41.391 75.011,54.19 53.565,54.19 32.446,54.19 13.232,41.541 4.614,21.963 L 4.551,21.842 -7.786,1.822 -0.452,3.988 0.059,2.258 0.053,2.095 C 0.027,1.399 0,0.703 0,0"
         style="fill:#3e65a0;fill-opacity:1;fill-rule:nonzero;stroke:none"
         id="path674" />
    </g>
    <g
       id="g676"
       transform="matrix(0.22119414,0,0,-0.21228574,70.547435,34.302093)">
      <path
         d="m 0,0 c 0,-29.88 24.029,-54.19 53.565,-54.19 18.769,0 35.852,9.71 45.696,25.977 l 0.139,0.224 8.292,13.785 -2.358,7.988 -7.912,-2.335 -8.804,-13.899 C 80.948,-34.756 67.874,-42.09 53.565,-42.09 30.701,-42.09 12.1,-23.208 12.1,0 c 0,23.208 18.601,42.09 41.465,42.09 16.669,0 31.507,-9.963 38.084,-25.473 l 11.074,4.879 C 94.202,41.391 75.012,54.19 53.565,54.19 32.446,54.19 13.232,41.541 4.615,21.963 L 4.551,21.842 -7.786,1.822 -0.451,3.988 0.059,2.258 0.053,2.095 C 0.027,1.399 0,0.703 0,0"
         style="fill:#f25841;fill-opacity:1;fill-rule:nonzero;stroke:none"
         id="path678" />
    </g>
    <g
       id="g680"
       transform="matrix(0.22119414,0,0,-0.21228574,95.180919,34.302093)">
      <path
         d="m 0,0 c 0,-29.88 24.029,-54.19 53.564,-54.19 18.769,0 35.852,9.71 45.697,25.977 l 8.43,14.009 -2.357,7.988 -7.913,-2.335 -8.809,-13.907 C 80.942,-34.758 67.871,-42.09 53.564,-42.09 30.701,-42.09 12.1,-23.208 12.1,0 c 0,23.208 18.601,42.09 41.464,42.09 16.669,0 31.508,-9.963 38.085,-25.473 l 11.074,4.879 C 94.201,41.391 75.011,54.19 53.564,54.19 32.445,54.19 13.231,41.541 4.614,21.963 L 4.551,21.842 -7.786,1.822 -0.452,3.988 0.059,2.258 0.052,2.095 C 0.026,1.399 0,0.703 0,0"
         style="fill:#fbd123;fill-opacity:1;fill-rule:nonzero;stroke:none"
         id="path682" />
    </g>
    <g
       id="g684"
       transform="matrix(0.22119414,0,0,-0.21228574,119.75132,34.894666)">
      <path
         d="m 0,0 c 0,-29.88 24.029,-54.19 53.564,-54.19 18.769,0 35.852,9.71 45.697,25.977 l 8.431,14.009 -2.358,7.988 -7.912,-2.335 -8.799,-13.891 C 80.954,-34.752 67.877,-42.09 53.564,-42.09 30.701,-42.09 12.1,-23.208 12.1,0 c 0,23.208 18.601,42.09 41.464,42.09 16.669,0 31.508,-9.963 38.085,-25.473 l 11.074,4.879 C 94.202,41.391 75.012,54.19 53.564,54.19 32.446,54.19 13.232,41.541 4.615,21.963 L 4.552,21.842 -7.785,1.822 -0.452,3.988 0.059,2.258 0.052,2.095 C 0.026,1.399 0,0.703 0,0"
         style="fill:#ba9c1b;fill-opacity:1;fill-rule:nonzero;stroke:none"
         id="path686" />
    </g>
    <path
       d="m 144.3877,34.894666 c 0,6.343098 5.31507,11.503764 11.84804,11.503764 4.1516,0 7.93026,-2.061294 10.10791,-5.514546 l 1.86489,-2.973911 -0.52158,-1.695739 -1.75008,0.495687 -1.94629,2.948862 c -1.69634,2.613237 -4.5889,4.17099 -7.75485,4.17099 -5.05716,0 -9.17159,-4.00838 -9.17159,-8.935107 0,-4.926727 4.11443,-8.935107 9.17159,-8.935107 3.68709,0 6.96939,2.115003 8.42418,5.407555 l 2.44951,-1.035742 c -1.8848,-4.223425 -6.12952,-6.94047 -10.87369,-6.94047 -4.67117,0 -8.9212,2.685202 -10.82723,6.841332 l -0.0139,0.02569 -2.7291,4.24996 1.62224,-0.459811 0.11303,0.367255 -0.002,0.0346 c -0.006,0.147751 -0.0115,0.295502 -0.0115,0.444739"
       style="fill:#9c1661;fill-opacity:1;fill-rule:nonzero;stroke:none;stroke-width:0.216694"
       id="path690" />
    <g
       id="g692"
       transform="matrix(0.22119414,0,0,-0.21228574,26.190312,29.037385)">
      <path
         d="m 0,0 -33.219,-54.167 -2.495,6.893 -7.669,-0.66 33.219,54.167 z"
         style="fill:#588cd1;fill-opacity:1;fill-rule:nonzero;stroke:none"
         id="path694" />
    </g>
    <g
       id="g696"
       transform="matrix(0.22119414,0,0,-0.21228574,172.12255,31.873585)">
      <path
         d="m 0,0 -25.227,-41.135 -10.164,6.233 25.227,41.135 7.258,0.814 z"
         style="fill:#9c1661;fill-opacity:1;fill-rule:nonzero;stroke:none"
         id="path698" />
    </g>
    <text
       xml:space="preserve"
       style="font-size:3.63932px;line-height:1.25;font-family:sans-serif;letter-spacing:0px;word-spacing:0px;fill:#000080;fill-opacity:1;stroke-width:0.0909827"
       x="119.64642"
       y="17.04468"
       id="text2846-3-9-8-0"
       transform="scale(1.0207665,0.97965598)"><tspan
         sodipodi:role="line"
         x="119.64642"
         y="17.04468"
         style="fill:#000080;fill-opacity:1;stroke-width:0.0909827"
         id="tspan18443">PUBLICAR</tspan><tspan
         sodipodi:role="line"
         x="119.64642"
         y="21.59383"
         style="fill:#000080;fill-opacity:1;stroke-width:0.0909827"
         id="tspan23037">PARA USO</tspan></text>
    <text
       xml:space="preserve"
       style="font-size:3.79085px;line-height:1.25;font-family:sans-serif;letter-spacing:0px;word-spacing:0px;fill:#000080;fill-opacity:1;stroke-width:0.0947714"
       x="153.08325"
       y="16.852972"
       id="text2846-3-9-8-0-1"
       transform="scale(1.0207665,0.97965598)"><tspan
         sodipodi:role="line"
         x="153.08325"
         y="16.852972"
         style="text-align:center;text-anchor:middle;fill:#000080;fill-opacity:1;stroke-width:0.0947714"
         id="tspan22061">SEGUIR Y</tspan><tspan
         sodipodi:role="line"
         x="153.08325"
         y="21.591534"
         style="text-align:center;text-anchor:middle;fill:#000080;fill-opacity:1;stroke-width:0.0947714"
         id="tspan87492">MEJORAR</tspan></text>
  </g>
</svg>
